<svg width="32" height="32" viewBox="0 0 32 32" fill="none" xmlns="http://www.w3.org/2000/svg">
  <rect width="32" height="32" rx="6" fill="#E1F0F7"/>
  
  <path d="M22.5 10.5C22.5 8.5 21.5 6.8 20 5.8C22.2 6.2 24 8.1 24 10.5C24 13.3 21.8 15.5 19 15.5C18 15.5 17 15.2 16.2 14.7C17.2 16.1 18.8 17 20.5 17C23.5 17 26 14.5 26 11.5C26 11.1 25.9 10.8 25.8 10.5C24.8 11.7 23.2 12.5 21.5 12.5C21.5 12.5 22.5 11.5 22.5 10.5Z" fill="#FBBF24"/>
  
  <path d="M22 22C23.6 22 25 20.6 25 19C25 17.5 23.8 16.2 22.3 16C21.8 13.7 19.8 12 17.5 12C15.8 12 14.3 12.9 13.5 14.2C13 14.1 12.5 14 12 14C9.8 14 8 15.8 8 18C8 20.2 9.8 22 12 22H22Z" fill="white"/>
  
  <path d="M8 24C10 23 12 25 14 24C16 23 18 25 20 24C22 23 24 25 26 24" stroke="#85B1CC" stroke-width="1.5" stroke-linecap="round"/>
  <path d="M9 27C11 26 13 28 15 27C17 26 19 28 21 27C23 26 25 28 27 27" stroke="#85B1CC" stroke-width="1.5" stroke-linecap="round"/>
</svg>
